HIERARCHY
ROOT Hips
{
  OFFSET 5.72205e-005 65.662 3.42586
  CHANNELS 6 Xposition Yposition Zposition Zrotation Xrotation Yrotation
  JOINT Chest
  {
    OFFSET 0 8.7983 -4.7612
    CHANNELS 6 Xposition Yposition Zposition Zrotation Xrotation Yrotation
    JOINT Chest2
    {
      OFFSET 0 8.0291 0.4195
      CHANNELS 6 Xposition Yposition Zposition Zrotation Xrotation Yrotation
      JOINT Chest3
      {
        OFFSET 0 9.9351 -2.2114
        CHANNELS 6 Xposition Yposition Zposition Zrotation Xrotation Yrotation
        JOINT Neck
        {
          OFFSET 0 22.3885 -0.4656
          CHANNELS 6 Xposition Yposition Zposition Zrotation Xrotation Yrotation
          JOINT Head
          {
            OFFSET -0.0001 12.643 3.4389
            CHANNELS 6 Xposition Yposition Zposition Zrotation Xrotation Yrotation
            End Site
            {
              OFFSET 0.0001 17.6655 0.5274
            }
          }
        }
        JOINT LeftCollar
        {
          OFFSET 2.2603 21.606 7.4023
          CHANNELS 6 Xposition Yposition Zposition Zrotation Xrotation Yrotation
          JOINT LeftShoulder
          {
            OFFSET 13.5163 -1.1332 -5.0146
            CHANNELS 6 Xposition Yposition Zposition Zrotation Xrotation Yrotation
            JOINT LeftElbow
            {
              OFFSET -0.0995 -28.05 -0.2431
              CHANNELS 6 Xposition Yposition Zposition Zrotation Xrotation Yrotation
              JOINT LeftWrist
              {
                OFFSET 0.0679 -23.3996 -0.1402
                CHANNELS 6 Xposition Yposition Zposition Zrotation Xrotation Yrotation
                JOINT LeftFinger1
                {
                  OFFSET 0.7932 -9.069 2.5189
                  CHANNELS 6 Xposition Yposition Zposition Zrotation Xrotation Yrotation
                  JOINT LeftFinger11
                  {
                    OFFSET -0.8272 -3.3923 0.5977
                    CHANNELS 6 Xposition Yposition Zposition Zrotation Xrotation Yrotation
                    JOINT LeftFinger12
                    {
                      OFFSET -0.5649 -2.3158 0.4082
                      CHANNELS 6 Xposition Yposition Zposition Zrotation Xrotation Yrotation
                      End Site
                      {
                        OFFSET -0.4919 -1.6479 0.2673
                      }
                    }
                  }
                }
                JOINT LeftFinger2
                {
                  OFFSET 0.9159 -9.2044 0.2193
                  CHANNELS 6 Xposition Yposition Zposition Zrotation Xrotation Yrotation
                  JOINT LeftFinger21
                  {
                    OFFSET 0.0117 -4.1944 -0.0248
                    CHANNELS 6 Xposition Yposition Zposition Zrotation Xrotation Yrotation
                    JOINT LeftFinger22
                    {
                      OFFSET 0.0071 -2.3249 -0.0142
                      CHANNELS 6 Xposition Yposition Zposition Zrotation Xrotation Yrotation
                      End Site
                      {
                        OFFSET -0.1475 -2.0882 0.0028
                      }
                    }
                  }
                }
                JOINT LeftFinger3
                {
                  OFFSET 0.6113 -8.7231 -2.0637
                  CHANNELS 6 Xposition Yposition Zposition Zrotation Xrotation Yrotation
                  JOINT LeftFinger31
                  {
                    OFFSET -0.1927 -3.8059 -0.2383
                    CHANNELS 6 Xposition Yposition Zposition Zrotation Xrotation Yrotation
                    JOINT LeftFinger32
                    {
                      OFFSET -0.1091 -2.1688 -0.1362
                      CHANNELS 6 Xposition Yposition Zposition Zrotation Xrotation Yrotation
                      End Site
                      {
                        OFFSET -0.2358 -1.9176 -0.0906
                      }
                    }
                  }
                }
                JOINT LeftFinger4
                {
                  OFFSET -0.6151 -8.0947 -3.5641
                  CHANNELS 6 Xposition Yposition Zposition Zrotation Xrotation Yrotation
                  JOINT LeftFinger41
                  {
                    OFFSET -0.4882 -2.341 -0.6462
                    CHANNELS 6 Xposition Yposition Zposition Zrotation Xrotation Yrotation
                    JOINT LeftFinger42
                    {
                      OFFSET -0.3575 -1.7167 -0.4742
                      CHANNELS 6 Xposition Yposition Zposition Zrotation Xrotation Yrotation
                      End Site
                      {
                        OFFSET -0.4187 -1.5237 -0.3496
                      }
                    }
                  }
                }
                JOINT LeftFinger0
                {
                  OFFSET -1.42 -1.8761 1.4223
                  CHANNELS 6 Xposition Yposition Zposition Zrotation Xrotation Yrotation
                  JOINT LeftFinger01
                  {
                    OFFSET -1.1471 -3.4929 2.6334
                    CHANNELS 6 Xposition Yposition Zposition Zrotation Xrotation Yrotation
                    JOINT LeftFinger02
                    {
                      OFFSET -0.823 -2.3 1.6571
                      CHANNELS 6 Xposition Yposition Zposition Zrotation Xrotation Yrotation
                      End Site
                      {
                        OFFSET -0.5822 -1.6914 1.1582
                      }
                    }
                  }
                }
              }
            }
          }
        }
        JOINT RightCollar
        {
          OFFSET -2.2603 21.606 7.4023
          CHANNELS 6 Xposition Yposition Zposition Zrotation Xrotation Yrotation
          JOINT RightShoulder
          {
            OFFSET -13.5187 -1.1334 -5.0155
            CHANNELS 6 Xposition Yposition Zposition Zrotation Xrotation Yrotation
            JOINT RightElbow
            {
              OFFSET 0.0994 -28.0499 -0.2431
              CHANNELS 6 Xposition Yposition Zposition Zrotation Xrotation Yrotation
              JOINT RightWrist
              {
                OFFSET -0.0679 -23.3996 -0.1402
                CHANNELS 6 Xposition Yposition Zposition Zrotation Xrotation Yrotation
                JOINT RightFinger1
                {
                  OFFSET -0.7932 -9.0691 2.5189
                  CHANNELS 6 Xposition Yposition Zposition Zrotation Xrotation Yrotation
                  JOINT RightFinger11
                  {
                    OFFSET 0.8272 -3.3923 0.5977
                    CHANNELS 6 Xposition Yposition Zposition Zrotation Xrotation Yrotation
                    JOINT RightFinger12
                    {
                      OFFSET 0.565 -2.3158 0.4082
                      CHANNELS 6 Xposition Yposition Zposition Zrotation Xrotation Yrotation
                      End Site
                      {
                        OFFSET 0.4919 -1.6479 0.2673
                      }
                    }
                  }
                }
                JOINT RightFinger2
                {
                  OFFSET -0.916 -9.2044 0.2193
                  CHANNELS 6 Xposition Yposition Zposition Zrotation Xrotation Yrotation
                  JOINT RightFinger21
                  {
                    OFFSET -0.0117 -4.1944 -0.0248
                    CHANNELS 6 Xposition Yposition Zposition Zrotation Xrotation Yrotation
                    JOINT RightFinger22
                    {
                      OFFSET -0.0071 -2.3249 -0.0142
                      CHANNELS 6 Xposition Yposition Zposition Zrotation Xrotation Yrotation
                      End Site
                      {
                        OFFSET 0.1475 -2.0882 0.0028
                      }
                    }
                  }
                }
                JOINT RightFinger3
                {
                  OFFSET -0.6113 -8.7231 -2.0637
                  CHANNELS 6 Xposition Yposition Zposition Zrotation Xrotation Yrotation
                  JOINT RightFinger31
                  {
                    OFFSET 0.1927 -3.8059 -0.2383
                    CHANNELS 6 Xposition Yposition Zposition Zrotation Xrotation Yrotation
                    JOINT RightFinger32
                    {
                      OFFSET 0.1091 -2.1688 -0.1362
                      CHANNELS 6 Xposition Yposition Zposition Zrotation Xrotation Yrotation
                      End Site
                      {
                        OFFSET 0.2358 -1.9176 -0.0906
                      }
                    }
                  }
                }
                JOINT RightFinger4
                {
                  OFFSET 0.6151 -8.0947 -3.564
                  CHANNELS 6 Xposition Yposition Zposition Zrotation Xrotation Yrotation
                  JOINT RightFinger41
                  {
                    OFFSET 0.4882 -2.341 -0.6462
                    CHANNELS 6 Xposition Yposition Zposition Zrotation Xrotation Yrotation
                    JOINT RightFinger42
                    {
                      OFFSET 0.3574 -1.7166 -0.4742
                      CHANNELS 6 Xposition Yposition Zposition Zrotation Xrotation Yrotation
                      End Site
                      {
                        OFFSET 0.4187 -1.5237 -0.3496
                      }
                    }
                  }
                }
                JOINT RightFinger0
                {
                  OFFSET 1.4199 -1.8761 1.4221
                  CHANNELS 6 Xposition Yposition Zposition Zrotation Xrotation Yrotation
                  JOINT RightFinger01
                  {
                    OFFSET 1.1472 -3.4929 2.6336
                    CHANNELS 6 Xposition Yposition Zposition Zrotation Xrotation Yrotation
                    JOINT RightFinger02
                    {
                      OFFSET 0.8229 -2.3 1.6571
                      CHANNELS 6 Xposition Yposition Zposition Zrotation Xrotation Yrotation
                      End Site
                      {
                        OFFSET 0.5822 -1.6914 1.1582
                      }
                    }
                  }
                }
              }
            }
          }
        }
      }
    }
  }
  JOINT RightHip
  {
    OFFSET -9.412 3.9771 -0.7758
    CHANNELS 6 Xposition Yposition Zposition Zrotation Xrotation Yrotation
    JOINT RightKnee
    {
      OFFSET -0.7531 -40.938 0
      CHANNELS 6 Xposition Yposition Zposition Zrotation Xrotation Yrotation
      JOINT RightAnkle
      {
        OFFSET 0 -40.1986 0
        CHANNELS 6 Xposition Yposition Zposition Zrotation Xrotation Yrotation
        JOINT RightToe
        {
          OFFSET 0 -4.4182 9.239
          CHANNELS 6 Xposition Yposition Zposition Zrotation Xrotation Yrotation
          End Site
          {
            OFFSET 0 0 6.1981
          }
        }
      }
    }
  }
  JOINT LeftHip
  {
    OFFSET 9.4119 3.9773 -0.7758
    CHANNELS 6 Xposition Yposition Zposition Zrotation Xrotation Yrotation
    JOINT LeftKnee
    {
      OFFSET 0.7532 -40.9383 0
      CHANNELS 6 Xposition Yposition Zposition Zrotation Xrotation Yrotation
      JOINT LeftAnkle
      {
        OFFSET 0 -40.1986 0
        CHANNELS 6 Xposition Yposition Zposition Zrotation Xrotation Yrotation
        JOINT LeftToe
        {
          OFFSET 0 -4.4182 9.239
          CHANNELS 6 Xposition Yposition Zposition Zrotation Xrotation Yrotation
          End Site
          {
            OFFSET 0 0 6.1981
          }
        }
      }
    }
  }
}
MOTION
Frames:	4
Frame Time:	0.0333333
5.72205e-005 65.662 3.42586 0 0 -0 0 8.7983 -4.7612 0 0 -0 0 8.0291 0.4195 0 0 -0 0 9.9351 -2.2114 0 0 -0 0 22.3885 -0.4656 0 0 -0 -0.0001 12.643 3.4389 0 0 -0 2.2603 21.606 7.4023 0 0 -12.5014 13.5163 -1.1332 -5.0146 88.1196 14.2451 10.6914 -0.0995 -28.05 -0.2431 -0.00160068 -0.00239207 0.000740045 0.0679 -23.3996 -0.1402 -8.4365e-005 7.00714e-005 -9.52055e-007 0.7932 -9.069 2.5189 9.93923e-017 -1.98785e-016 -1.59028e-015 -0.8272 -3.3923 0.5977 9.93923e-017 -5.96354e-016 -1.59028e-015 -0.5649 -2.3158 0.4082 -9.93923e-017 -5.96354e-016 -1.59028e-015 0.9159 -9.2044 0.2193 9.93923e-017 -1.98785e-016 -1.59028e-015 0.0117 -4.1944 -0.0248 -0.0128176 0.00232552 8.52707e-005 0.0071 -2.3249 -0.0142 9.93923e-017 5.96354e-016 -0 0.6113 -8.7231 -2.0637 9.93923e-017 -1.98785e-016 -1.59028e-015 -0.1927 -3.8059 -0.2383 -0.0160551 0.00299681 0.000857156 -0.1091 -2.1688 -0.1362 -2.48481e-016 0 3.18055e-015 -0.6151 -8.0947 -3.5641 9.93923e-017 -1.98785e-016 -1.59028e-015 -0.4882 -2.341 -0.6462 -0.0125865 0.0031206 0.00282719 -0.3575 -1.7167 -0.4742 0 1.98785e-016 -0 -1.42 -1.8761 1.4223 9.93923e-017 -1.98785e-016 -1.59028e-015 -1.1471 -3.4929 2.6334 9.93923e-017 -5.96354e-016 -1.59028e-015 -0.823 -2.3 1.6571 -9.93923e-017 -5.96354e-016 -1.59028e-015 -2.2603 21.606 7.4023 -0.865644 0.16582 7.03859 -13.5187 -1.1334 -5.0155 -88.0329 10.2057 -10.5567 0.0994 -28.0499 -0.2431 0.0015593 -0.00248883 -0.000788628 -0.0679 -23.3996 -0.1402 7.87605e-005 4.10553e-005 1.24965e-005 -0.7932 -9.0691 2.5189 -3.97569e-016 -7.95139e-016 3.18055e-015 0.8272 -3.3923 0.5977 -1.98785e-016 -3.97569e-016 3.18055e-015 0.565 -2.3158 0.4082 -1.98785e-016 0 3.18055e-015 -0.916 -9.2044 0.2193 -3.97569e-016 -7.95139e-016 3.18055e-015 -0.0117 -4.1944 -0.0248 0.0129473 0.00231697 -8.70038e-005 -0.0071 -2.3249 -0.0142 9.93923e-017 -7.95139e-016 1.59028e-015 -0.6113 -8.7231 -2.0637 -3.97569e-016 -7.95139e-016 3.18055e-015 0.1927 -3.8059 -0.2383 0.0163314 0.00303369 -0.000872333 0.1091 -2.1688 -0.1362 3.97569e-016 7.95139e-016 -3.18055e-015 0.6151 -8.0947 -3.564 -3.97569e-016 -7.95139e-016 3.18055e-015 0.4882 -2.341 -0.6462 0.0145763 0.00367772 -0.00326275 0.3574 -1.7166 -0.4742 9.93923e-017 -3.97569e-016 -0 1.4199 -1.8761 1.4221 -3.97569e-016 -7.95139e-016 3.18055e-015 1.1472 -3.4929 2.6336 -1.98785e-016 -3.97569e-016 3.18055e-015 0.8229 -2.3 1.6571 -1.98785e-016 0 3.18055e-015 -9.412 3.9771 -0.7758 3.42482 1.32465 -0.0626183 -0.7531 -40.938 0 0.000117508 0.717283 0.000978199 0 -40.1986 0 -3.4257 -2.04197 -0.0604716 8.88178e-016 -4.4182 9.239 6.47761e-025 0 -0 9.4119 3.9773 -0.7758 -3.42483 1.34017 0.0627307 0.7532 -40.9383 -2.22045e-016 -0.000193936 0.682302 -0.0013703 -8.88179e-016 -40.1986 0 3.42574 -2.02253 0.0595886 -8.88178e-016 -4.4182 9.239 -8.45714e-024 0 -7.40531e-025 
-2.22714e-005 19.1803 9.35256 3.21126e-008 -72.5948 2.72752e-008 0 8.7983 -4.7612 -0.023038 0.633325 -0.14767 0 8.0291 0.4195 -0.0444477 1.26675 -0.295116 -1.38778e-017 9.9351 -2.2114 -0.0444478 1.26673 -0.295116 0 22.3885 -0.4656 -2.17232e-005 29.6675 6.09514e-005 -0.0001 12.643 3.4389 -1.80258e-007 6.7622 1.37456e-007 2.2603 21.606 7.4023 12.063 3.37198 -7.3111 13.5163 -1.1332 -5.0146 101.016 -9.48965 70.7217 -0.0995 -28.05 -0.2431 -127.371 -76.7125 -143.772 0.0679 -23.3996 -0.1402 -8.88715 -16.1922 6.99657 0.7932 -9.069 2.5189 -1.91399e-006 -1.5108e-006 -3.87936e-006 -0.8272 -3.3923 0.5977 1.59028e-015 -1.41719e-006 -0 -0.5649 -2.3158 0.4082 -6.49686e-007 -3.5352e-006 1.7404e-006 0.9159 -9.2044 0.2193 -1.91399e-006 -1.5108e-006 -3.87936e-006 0.0117 -4.1944 -0.0248 -0.0127742 0.00231124 8.97237e-005 0.0071 -2.3249 -0.0142 -1.59028e-015 -2.83522e-006 -6.36111e-015 0.6113 -8.7231 -2.0637 -1.91399e-006 -1.5108e-006 -3.87936e-006 -0.1927 -3.8059 -0.2383 -0.0159999 0.0029725 0.00086063 -0.1091 -2.1688 -0.1362 4.07561e-006 -1.3417e-005 1.86489e-006 -0.6151 -8.0947 -3.5641 -1.91399e-006 -1.5108e-006 -3.87936e-006 -0.4882 -2.341 -0.6462 -0.0126102 0.00311358 0.00283755 -0.3575 -1.7167 -0.4742 -6.4915e-007 -3.58613e-006 1.74022e-006 -1.42 -1.8761 1.4223 -1.91399e-006 -1.5108e-006 -3.87936e-006 -1.1471 -3.4929 2.6334 1.59028e-015 -1.41719e-006 -0 -0.823 -2.3 1.6571 -6.49686e-007 -3.5352e-006 1.7404e-006 -2.2603 21.606 7.4023 -12.9143 3.61561 1.89642 -13.5187 -1.1334 -5.0155 -99.5506 -13.452 -71.746 0.0994 -28.0499 -0.2431 133.418 -77.5931 149.025 -0.0679 -23.3996 -0.1402 9.04023 -16.0776 -7.03671 -0.7932 -9.0691 2.5189 -4.77083e-015 2.38542e-015 9.54166e-015 0.8272 -3.3923 0.5977 -2.48503e-006 -6.10951e-006 -2.2183e-006 0.565 -2.3158 0.4082 -6.49551e-006 -8.12532e-007 -4.28183e-006 -0.916 -9.2044 0.2193 -4.77083e-015 2.38542e-015 9.54166e-015 -0.0117 -4.1944 -0.0248 0.0128922 0.00230073 -8.95721e-005 -0.0071 -2.3249 -0.0142 -9.52903e-006 1.44726e-005 1.2763e-005 -0.6113 -8.7231 -2.0637 -4.77083e-015 2.38542e-015 9.54166e-015 0.1927 -3.8059 -0.2383 0.016326 0.00303515 -0.000874122 0.1091 -2.1688 -0.1362 -1.08507e-005 8.55722e-006 2.90035e-006 0.6151 -8.0947 -3.564 -4.77083e-015 2.38542e-015 9.54166e-015 0.4882 -2.341 -0.6462 0.0144867 0.00364098 -0.00324283 0.3574 -1.7166 -0.4742 -2.9407e-006 6.14498e-006 3.66854e-006 1.4199 -1.8761 1.4221 -4.77083e-015 2.38542e-015 9.54166e-015 1.1472 -3.4929 2.6336 -2.48503e-006 -6.10951e-006 -2.2183e-006 0.8229 -2.3 1.6571 -6.49551e-006 -8.12532e-007 -4.28183e-006 -9.412 3.9771 -0.7758 -29.8245 6.06874 -26.8823 -0.7531 -40.938 0 -37.6676 44.9184 31.7001 7.10543e-015 -40.1986 0 6.45485 -3.64757 -1.14046 0 -4.4182 9.239 1.59028e-015 -3.18055e-015 6.36111e-015 9.4119 3.9773 -0.7758 29.8214 6.06655 26.8801 0.7532 -40.9383 -3.55271e-015 37.6686 44.9242 -31.7075 3.55271e-015 -40.1986 0 -6.45694 -3.64829 1.14055 0 -4.4182 9.239 8.06577e-007 1.42466e-006 -2.77637e-007 
0.000299988 -1.16917 7.95619 -180 -74.7376 -180 -5.42101e-020 8.7983 -4.7612 -0.0444955 0.895828 -0.213153 -3.46945e-018 8.0291 0.4195 -0.0856724 1.79178 -0.425685 0 9.9351 -2.2114 -0.085673 1.79179 -0.425687 -2.77556e-017 22.3885 -0.4656 -2.11415e-005 42.8207 4.07639e-005 -0.0001 12.643 3.4389 -1.76382e-008 9.32712 1.36675e-007 2.2603 21.606 7.4023 17.2917 4.86739 -4.96126 13.5163 -1.1332 -5.0146 106.829 -20.2806 97.7153 -0.0995 -28.05 -0.2431 -177.146 -37.9135 159.362 0.0679 -23.3996 -0.1402 -13.104 -23.4568 9.78541 0.7932 -9.069 2.5189 -3.97569e-016 -1.59028e-015 -0 -0.8272 -3.3923 0.5977 -3.97569e-016 -1.59028e-015 1.59028e-015 -0.5649 -2.3158 0.4082 4.41391e-032 1.59028e-015 -1.59028e-015 0.9159 -9.2044 0.2193 -3.97569e-016 -1.59028e-015 -0 0.0117 -4.1944 -0.0248 -0.0128112 0.0023257 8.31945e-005 0.0071 -2.3249 -0.0142 1.27222e-014 3.18055e-015 1.59028e-015 0.6113 -8.7231 -2.0637 -3.97569e-016 -1.59028e-015 -0 -0.1927 -3.8059 -0.2383 -0.0160543 0.00299832 0.000859148 -0.1091 -2.1688 -0.1362 3.97569e-016 -1.59028e-015 -3.18055e-015 -0.6151 -8.0947 -3.5641 -3.97569e-016 -1.59028e-015 -0 -0.4882 -2.341 -0.6462 -0.0126174 0.0031307 0.00283633 -0.3575 -1.7167 -0.4742 1.19271e-015 -1.59028e-015 3.18055e-015 -1.42 -1.8761 1.4223 -3.97569e-016 -1.59028e-015 -0 -1.1471 -3.4929 2.6334 -3.97569e-016 -1.59028e-015 1.59028e-015 -0.823 -2.3 1.6571 4.41391e-032 1.59028e-015 -1.59028e-015 -2.2603 21.606 7.4023 -18.1351 5.14561 -0.433013 -13.5187 -1.1334 -5.0155 -105.233 -24.6365 -98.9871 0.0994 -28.0499 -0.2431 -179.977 -37.4994 -157.998 -0.0679 -23.3996 -0.1402 13.3439 -23.2917 -9.80914 -0.7932 -9.0691 2.5189 -3.97569e-016 4.77083e-015 -3.18055e-015 0.8272 -3.3923 0.5977 7.95139e-016 0 -1.59028e-015 0.565 -2.3158 0.4082 -1.59028e-015 0 -1.59028e-015 -0.916 -9.2044 0.2193 -3.97569e-016 4.77083e-015 -3.18055e-015 -0.0117 -4.1944 -0.0248 0.0129369 0.00231514 -8.9569e-005 -0.0071 -2.3249 -0.0142 -3.97569e-016 1.59028e-015 -0 -0.6113 -8.7231 -2.0637 -3.97569e-016 4.77083e-015 -3.18055e-015 0.1927 -3.8059 -0.2383 0.0163489 0.00303669 -0.000876953 0.1091 -2.1688 -0.1362 -1.19271e-014 0 6.36111e-015 0.6151 -8.0947 -3.564 -3.97569e-016 4.77083e-015 -3.18055e-015 0.4882 -2.341 -0.6462 0.0146136 0.00368263 -0.00326739 0.3574 -1.7166 -0.4742 1.77271e-007 8.13169e-007 8.20502e-007 1.4199 -1.8761 1.4221 -3.97569e-016 4.77083e-015 -3.18055e-015 1.1472 -3.4929 2.6336 7.95139e-016 0 -1.59028e-015 0.8229 -2.3 1.6571 -1.59028e-015 0 -1.59028e-015 -9.412 3.9771 -0.7758 -42.5692 7.65058 -39.7568 -0.7531 -40.938 -1.33227e-015 -75.7238 53.2129 61.4565 0 -40.1986 0 10.3092 -4.5075 -2.04068 0 -4.4182 9.239 -3.18055e-015 1.59028e-015 -3.18055e-015 9.4119 3.9773 -0.7758 42.565 7.64786 39.7528 0.7532 -40.9383 -4.44089e-016 75.6941 53.2064 -61.4271 0 -40.1986 0 -10.3127 -4.50708 2.04022 0 -4.4182 9.239 7.61238e-006 -1.72777e-006 2.07633e-007 
0.000853951 3.4327 8.46476 -180 -81.997 -180 0 8.7983 -4.7612 -0.0388761 0.787441 -0.198509 0 8.0291 0.4195 -0.0750337 1.57503 -0.39654 6.9389e-018 9.9351 -2.2114 -0.0750337 1.57502 -0.39654 -4.16334e-017 22.3885 -0.4656 1.19208e-005 39.4594 -2.48598e-005 -0.0001 12.643 3.4389 -3.43647e-007 7.69453 1.39332e-007 2.2603 21.606 7.4023 16.1405 4.53711 -5.48474 13.5163 -1.1332 -5.0146 105.542 -17.9003 91.7055 -0.0995001 -28.05 -0.2431 -173.149 -47.3418 164.801 0.0679 -23.3996 -0.1402 -12.1498 -21.8443 9.18846 0.7932 -9.069 2.5189 -9.93923e-017 1.19271e-015 -1.59028e-015 -0.8272 -3.3923 0.5977 6.4605e-016 1.59028e-015 -1.59028e-015 -0.5649 -2.3158 0.4082 1.98785e-016 1.19271e-015 -7.95139e-016 0.9159 -9.2044 0.2193 -9.93923e-017 1.19271e-015 -1.59028e-015 0.0117 -4.1944 -0.0248 -0.0128227 0.00232686 8.54683e-005 0.0071 -2.3249 -0.0142 -1.98785e-016 3.97569e-016 -2.38542e-015 0.6113 -8.7231 -2.0637 -9.93923e-017 1.19271e-015 -1.59028e-015 -0.1927 -3.8059 -0.2383 -0.0160511 0.00299576 0.000858664 -0.1091 -2.1688 -0.1362 2.98177e-016 -3.97569e-016 -0 -0.6151 -8.0947 -3.5641 -9.93923e-017 1.19271e-015 -1.59028e-015 -0.4882 -2.341 -0.6462 -0.0125922 0.00312336 0.00282778 -0.3575 -1.7167 -0.4742 2.542e-008 4.26103e-007 4.24865e-007 -1.42 -1.8761 1.4223 -9.93923e-017 1.19271e-015 -1.59028e-015 -1.1471 -3.4929 2.6334 6.4605e-016 1.59028e-015 -1.59028e-015 -0.823 -2.3 1.6571 1.98785e-016 1.19271e-015 -7.95139e-016 -2.2603 21.606 7.4023 -16.9857 4.80771 0.0859067 -13.5187 -1.1334 -5.0155 -103.938 -22.1531 -92.9232 0.0994 -28.0499 -0.2431 176.327 -47.0596 -162.948 -0.0679 -23.3996 -0.1402 12.3693 -21.6904 -9.21788 -0.7932 -9.0691 2.5189 -7.45443e-017 -3.97569e-016 -7.95139e-016 0.8272 -3.3923 0.5977 -3.01191e-007 -1.83226e-007 -7.48272e-007 0.565 -2.3158 0.4082 -1.22501e-014 -1.19271e-015 7.95139e-016 -0.916 -9.20439 0.2193 -7.45443e-017 -3.97569e-016 -7.95139e-016 -0.0117 -4.1944 -0.0248 0.0129576 0.00231629 -8.76477e-005 -0.0071 -2.3249 -0.0142 -2.48481e-017 -7.95139e-016 -7.95139e-016 -0.6113 -8.72309 -2.0637 -7.45443e-017 -3.97569e-016 -7.95139e-016 0.1927 -3.8059 -0.2383 0.0163269 0.00303293 -0.000873458 0.1091 -2.1688 -0.1362 0 7.95139e-016 -0 0.6151 -8.0947 -3.564 -7.45443e-017 -3.97569e-016 -7.95139e-016 0.4882 -2.341 -0.6462 0.0145852 0.00367659 -0.00326305 0.3574 -1.7166 -0.4742 1.98785e-016 -7.95139e-016 -0 1.4199 -1.8761 1.4221 -7.45443e-017 -3.97569e-016 -7.95139e-016 1.1472 -3.4929 2.6336 -3.01191e-007 -1.83226e-007 -7.48272e-007 0.8229 -2.3 1.6571 -1.22501e-014 -1.19271e-015 7.95139e-016 -9.412 3.9771 -0.7758 -39.8051 7.39521 -36.8278 -0.7531 -40.938 -2.66454e-015 -65.5867 52.2581 53.3557 3.55271e-015 -40.1986 0 9.42762 -4.19649 -1.81518 -7.10543e-015 -4.4182 9.239 -3.18055e-015 4.77083e-015 -0 9.4119 3.9773 -0.7758 39.7998 7.39202 36.8225 0.7532 -40.9383 -1.77636e-015 65.4897 52.221 -53.2406 0 -40.1986 0 -9.4313 -4.19303 1.81334 0 -4.4182 9.239 -3.6356e-006 -9.91138e-007 -1.37263e-005 
